Ramp_Up_DEG
version=1
nRows=48
nColumns=18
inDegrees=yes
Units are S.I. units (second, meters, Newtons, ...)
Angles are in degrees.

endheader
time	pelvis_tilt	pelvis_list	pelvis_rotation	pelvis_tx	pelvis_ty	pelvis_tz	hip_flexion_r	hip_adduction_r	hip_rotation_r	knee_angle_r	ankle_angle_r	hip_flexion_l	hip_adduction_l	hip_rotation_l	knee_angle_l	ankle_angle_l	lumbar_extension
3.717	-21.09289229	1.4377297	1.25167516	0.8882526	0.98297546	0.03764705	71.63250934	-0.14045318	0	-42.54786432	11.97884837	16.99807688	3.47936787	0	-38.26821866	34.29759874	-5.00000214
3.733	-21.49512144	1.77849482	0.90123263	0.90828201	0.98830688	0.03920087	71.46113073	-0.0146051	0	-43.91235537	12.19787922	16.82105653	3.72777116	0	-39.2975663	30.25160815	-5.00000214
3.75	-21.76742003	2.11209593	0.40408261	0.92894699	0.99425371	0.04092855	70.80861686	0.15741123	0	-44.75104477	12.84236294	16.68443428	3.9535318	0	-40.9936943	22.61415724	-5.00000214
3.767	-21.93556383	2.38333067	0.14520252	0.94981926	1.00020819	0.04287287	69.65576916	0.16555025	0	-44.81914587	14.34215708	16.83075638	4.04057455	0	-43.31100119	14.17501595	-5.00000214
3.783	-22.21027082	2.57323906	0.0194197	0.96950201	1.00583561	0.0450597	68.91589564	0.15667146	0	-45.67609173	15.0667904	17.65048022	3.98841182	0	-46.78071834	8.86305078	-5.00000214
3.8	-22.39138552	2.65250338	0.11878394	0.9885682	1.01107841	0.04740973	67.769157	0.11227052	0	-45.81748585	16.58815827	19.15319167	3.80040722	0	-51.33197955	2.63750589	-5.00000214
3.817	-22.49379185	2.61239059	0.34066631	1.00680224	1.01643265	0.04996873	66.62896476	0.09838479	0	-46.37357422	17.77316948	21.10860983	3.47604588	0	-56.16772958	-4.81459607	-5.00000214
3.833	-22.47671577	2.39368042	0.5037811	1.02481018	1.02189093	0.053249	65.14717023	0.32591559	0	-46.48860215	19.15055901	23.20520418	2.83308841	0	-61.11897913	-6.40339776	-5.00000214
3.85	-22.53112963	2.17947954	0.58801665	1.04123557	1.02762275	0.0563573	63.61773876	0.62412225	0	-46.04690209	20.24049632	25.3326312	2.32500657	0	-65.20475375	0.05670504	-5.00000214
3.867	-22.35583448	1.90219419	0.17071918	1.05882308	1.03321392	0.0600323	61.7550301	1.37499986	0	-45.47926711	21.46935439	27.82841792	1.79447078	0	-69.0617296	4.53428553	-5.00000214
3.883	-22.12570866	1.57970694	-0.21108431	1.07642269	1.03946569	0.06371679	59.60371814	2.13768113	0	-44.48237964	22.59535537	30.0012414	1.18283901	0	-71.33076134	7.90907397	-5.00000214
3.9	-21.8371938	1.24754546	-0.58194169	1.09390372	1.04580864	0.06714114	57.31370159	2.84707467	0	-43.30276165	23.64346291	32.25336867	0.55305292	0	-72.54395119	10.7275249	-5.00000214
3.917	-21.53565672	0.87857738	-0.86036879	1.11114001	1.05183945	0.07041234	55.06074515	3.49878496	0	-42.17610024	24.51036045	34.6197462	-0.11670675	0	-73.24989751	13.91167132	-5.00000214
3.933	-21.22735761	0.70342492	-1.07930872	1.12811664	1.05746784	0.07289908	52.87613365	3.87096244	0	-41.10124544	25.37511365	37.02327461	-0.51442614	0	-73.30466662	16.47089577	-5.00000214
3.95	-20.92706544	0.47861596	-1.29977052	1.14459857	1.06228835	0.07577408	50.69240501	4.3309309	0	-39.92543956	26.41276812	39.52699042	-1.08531227	0	-72.99047172	18.21799815	-5.00000214
3.967	-20.66182478	0.19064376	-1.67075247	1.16087348	1.06616547	0.0792267	48.59388026	4.98696045	0	-38.79827172	27.51510875	42.01148748	-1.90453155	0	-72.42112056	19.84189201	-5.00000214
3.983	-20.26210651	-0.01133472	-2.02134899	1.17769166	1.06950351	0.0823031	46.49616298	5.53000407	0	-38.00546618	28.67766689	44.21243559	-2.69227165	0	-71.4485185	21.46035083	-5.00000214
4	-19.82580512	-0.15202848	-2.51475536	1.19409204	1.07220105	0.08509399	44.58930035	6.04261513	0	-37.52360278	29.69991447	46.29839234	-3.48015376	0	-70.19424648	22.91786589	-5.00000214
4.017	-19.48411804	-0.21119304	-3.21539248	1.20956992	1.07454559	0.08741273	42.82353121	6.48344699	0	-36.97749946	30.64324403	48.35052016	-4.21669824	0	-68.60346868	24.44390634	-5.00000214
4.033	-19.11515291	-0.32299422	-3.93266745	1.22519629	1.07635895	0.0898171	41.00648971	6.94932841	0	-36.475173	31.65168893	50.34958509	-5.00663292	0	-66.73909079	25.23487009	-5.00000214
4.05	-18.65177738	-0.41082677	-4.64573525	1.24122848	1.07824692	0.09193063	38.93484415	7.31984371	0	-35.75050946	32.69579895	51.93497908	-5.69815597	0	-64.36773788	25.84557138	-5.00000214
4.067	-18.13896502	-0.46847724	-5.14498679	1.25770246	1.07981627	0.09364441	36.80806694	7.5276298	0	-35.0819624	33.7768749	53.2778638	-6.18213571	0	-61.68069475	26.20111411	-5.00000214
4.083	-17.6615063	-0.56991396	-5.64957151	1.27414869	1.08099728	0.09558594	34.68887645	7.75677294	0	-34.3434491	34.81174482	54.50997783	-6.66692284	0	-58.76350903	26.37779963	-5.00000214
4.1	-17.17924391	-0.68042112	-6.23668455	1.29051915	1.08188466	0.09752443	32.62317455	7.98612042	0	-33.71803382	35.72436507	55.54752379	-7.1263446	0	-55.63057318	26.35300356	-5.00000214
4.117	-16.70118105	-0.68294686	-6.69272462	1.30719854	1.08247912	0.09846428	30.68208944	7.97038397	0	-33.34158268	36.70085081	56.3928089	-7.2593759	0	-52.31560363	26.22315649	-5.00000214
4.133	-16.22988744	-0.7505705	-7.1195972	1.32396257	1.08293166	0.09968969	28.79042459	8.04256632	0	-33.00510292	37.59269326	57.07376318	-7.41174897	0	-48.87367471	25.86647015	-5.00000214
4.15	-15.83123346	-0.79186028	-7.49565683	1.34051178	1.08289839	0.10052696	27.0795644	8.04294713	0	-32.84594422	38.45573466	57.66630007	-7.46214217	0	-45.36500504	25.12792386	-5.00000214
4.167	-15.44890324	-0.83329559	-7.76346808	1.35728665	1.08267558	0.10113265	25.3667249	7.98463081	0	-32.72336209	39.34500677	58.08881555	-7.42634057	0	-41.84923904	24.16777302	-5.00000214
4.183	-15.11178385	-0.86614359	-8.05448622	1.37425071	1.08226104	0.10155842	23.7295733	7.89606299	0	-32.69245286	40.15255079	58.35988043	-7.38905215	0	-38.38240012	23.17577214	-5.00000214
4.2	-14.84070797	-0.91835079	-8.33351873	1.3909869	1.0815055	0.10177737	22.30777844	7.8062377	0	-32.89138563	40.84206596	58.6557198	-7.37905937	0	-35.45464463	22.48360404	-5.00000214
4.217	-14.57344307	-1.00501427	-8.53591196	1.40802418	1.08068334	0.10194283	20.85735158	7.72628195	0	-33.05232781	41.47055556	58.89365772	-7.34222117	0	-33.08908172	22.29063833	-5.00000214
4.233	-14.19153487	-1.1345677	-8.7877648	1.42617635	1.08032076	0.10229399	19.0966052	7.67692387	0	-32.96651475	41.65990913	58.96140297	-7.33170404	0	-31.51450485	22.70805626	-5.00000214
4.25	-13.97531995	-1.1985394	-9.00591384	1.44336328	1.07971965	0.1021116	17.87011908	7.55380229	0	-33.4460097	41.40635074	59.11692431	-7.19019841	0	-30.39436368	22.78734576	-5.00000214
4.267	-13.80911854	-1.29673534	-9.18262042	1.46078856	1.07922133	0.10184285	16.70293155	7.44424568	0	-33.93917282	41.1567198	59.1315791	-7.04277548	0	-29.58455347	22.7985404	-5.00000214
4.283	-13.60462636	-1.40077311	-9.37108763	1.47908534	1.07931828	0.1015237	15.32011314	7.27773955	0	-34.1708922	40.62497977	59.03828484	-6.91369357	0	-29.75378351	22.95850483	-5.00000214
4.3	-13.45285361	-1.50320169	-9.61965581	1.49770154	1.07992265	0.1011975	13.98013931	7.07467291	0	-34.41200434	39.68911589	58.76376993	-6.8187975	0	-30.1693735	23.17951366	-5.00000214
4.317	-13.33937714	-1.66820095	-9.87083782	1.51695769	1.08108223	0.10097896	12.51426949	6.90340518	0	-34.4018008	38.3309939	58.24142147	-6.77027704	0	-30.91672507	23.74394659	-5.00000214
4.333	-13.21269435	-1.84542394	-10.06345233	1.53696407	1.0829207	0.10059319	10.78307993	6.67042106	0	-33.88728565	36.71173678	57.3475717	-6.6411672	0	-31.86508553	24.09084348	-5.00000214
4.35	-13.21703961	-2.03310972	-10.36685732	1.55667488	1.0851263	0.10023878	9.31995226	6.43494178	0	-33.46761864	34.55271469	56.29988637	-6.58324819	0	-32.75672164	24.04248071	-5.00000214
4.367	-13.390764	-2.25243136	-10.51057233	1.57574751	1.08794433	0.09979871	8.18694306	6.29641807	0	-33.05220138	32.03378018	55.56744744	-6.52467587	0	-33.36138941	22.1448205	-5.00000214
4.383	-13.71172647	-2.50110267	-10.5990435	1.59427965	1.09129212	0.09936676	7.59591657	6.26527513	0	-33.16119229	29.13275971	55.23008628	-6.60382424	0	-34.11358598	20.0821961	-5.00000214
4.4	-14.2164497	-2.61554366	-10.72945236	1.61178946	1.09513908	0.09839042	8.05946862	6.13533802	0	-34.62027779	25.7503992	55.19792518	-6.64841755	0	-35.07676721	18.99034691	-5.00000214
4.417	-14.81272895	-2.72758343	-10.97286753	1.62866514	1.09931807	0.0975816	9.20504908	6.06771043	0	-36.87327926	21.76959365	55.16168743	-6.80304645	0	-36.22867	20.0267505	-5.00000214
4.433	-15.51678361	-2.79872056	-11.15963411	1.64434071	1.10346994	0.09674747	11.14475429	6.05548775	0	-39.95804808	17.49033573	55.10685784	-6.97220371	0	-37.01946935	20.80695399	-5.00000214
4.45	-16.24475932	-2.75397862	-11.4520543	1.65894275	1.10758994	0.09542857	13.7959133	5.92157956	0	-43.96694316	13.07262481	54.8928762	-7.02498207	0	-37.39731776	21.8187952	-5.00000214
4.467	-16.87113792	-2.58957808	-11.69827897	1.67297723	1.11159368	0.09331737	17.06719744	5.66178665	0	-48.95244461	8.35507442	54.36862804	-6.83427048	0	-37.31043124	22.91200836	-5.00000214
4.483	-17.2985458	-2.31041964	-11.91105581	1.68701428	1.11557765	0.0907376	20.48356864	5.23794679	0	-54.15073666	4.03836166	53.43132603	-6.43127514	0	-36.83641161	24.20923705	-5.00000214
4.5	-17.62858882	-1.93658218	-12.18155442	1.70095951	1.11923686	0.08810193	24.0590076	4.71755977	0	-59.30964987	-0.26349797	52.45006799	-5.95158284	0	-36.43075639	25.4551546	-5.00000214
